<svg width="181" height="69" viewBox="0 0 181 69" fill="none" xmlns="http://www.w3.org/2000/svg">
<rect width="181" height="69" fill="#F5F5F5"/>
<g filter="url(#filter0_bd_0_1)">
<path d="M2.99194 3.28125V0.636363H18.7519V3.28125H12.3982V21H9.33569V3.28125H2.99194ZM21.8099 21V5.72727H24.6835V8.15341H24.8426C25.121 7.33144 25.6115 6.68513 26.3142 6.21449C27.0235 5.73722 27.8255 5.49858 28.7204 5.49858C28.906 5.49858 29.1248 5.50521 29.3767 5.51847C29.6352 5.53172 29.8374 5.54829 29.9832 5.56818V8.41193C29.8639 8.37879 29.6518 8.34233 29.3468 8.30256C29.0419 8.25615 28.737 8.23295 28.4321 8.23295C27.7294 8.23295 27.103 8.3821 26.5528 8.6804C26.0092 8.97206 25.5784 9.37973 25.2602 9.90341C24.942 10.4205 24.7829 11.0104 24.7829 11.6733V21H21.8099ZM38.2639 21.3381C37.2961 21.3381 36.4211 21.1591 35.6389 20.8011C34.8567 20.4366 34.2369 19.9096 33.7795 19.2202C33.3288 18.5308 33.1034 17.6856 33.1034 16.6847C33.1034 15.8229 33.2691 15.1136 33.6005 14.5568C33.932 14 34.3794 13.5592 34.9429 13.2344C35.5063 12.9096 36.136 12.6643 36.8321 12.4986C37.5281 12.3329 38.2374 12.2069 38.9599 12.1207C39.8747 12.0147 40.6171 11.9285 41.1872 11.8622C41.7573 11.7893 42.1716 11.6733 42.4301 11.5142C42.6886 11.3551 42.8179 11.0966 42.8179 10.7386V10.669C42.8179 9.80066 42.5726 9.12784 42.0821 8.65057C41.5982 8.17329 40.8756 7.93466 39.9145 7.93466C38.9135 7.93466 38.1247 8.15672 37.548 8.60085C36.9779 9.03835 36.5835 9.52557 36.3647 10.0625L33.5707 9.42614C33.9021 8.49811 34.386 7.74905 35.0224 7.17898C35.6654 6.60227 36.4045 6.18466 37.2397 5.92614C38.075 5.66098 38.9533 5.52841 39.8747 5.52841C40.4845 5.52841 41.1308 5.60133 41.8136 5.74716C42.503 5.88636 43.146 6.14489 43.7426 6.52273C44.3458 6.90057 44.8396 7.44081 45.2241 8.14347C45.6086 8.83949 45.8008 9.74432 45.8008 10.858V21H42.8974V18.9119H42.7781C42.5859 19.2964 42.2975 19.6742 41.913 20.0455C41.5286 20.4167 41.0347 20.7249 40.4315 20.9702C39.8283 21.2154 39.1057 21.3381 38.2639 21.3381ZM38.9102 18.9517C39.7322 18.9517 40.4348 18.7893 41.0181 18.4645C41.6081 18.1397 42.0556 17.7154 42.3605 17.1918C42.672 16.6615 42.8278 16.0947 42.8278 15.4915V13.5227C42.7217 13.6288 42.5163 13.7282 42.2113 13.821C41.913 13.9072 41.5717 13.9834 41.1872 14.0497C40.8027 14.1094 40.4282 14.1657 40.0636 14.2188C39.699 14.2652 39.3941 14.3049 39.1488 14.3381C38.5721 14.411 38.0451 14.5336 37.5679 14.706C37.0972 14.8783 36.7194 15.1269 36.4343 15.4517C36.1559 15.7699 36.0167 16.1941 36.0167 16.7244C36.0167 17.4602 36.2885 18.017 36.8321 18.3949C37.3756 18.7661 38.0683 18.9517 38.9102 18.9517ZM63.6792 5.72727L58.1408 21H54.959L49.4107 5.72727H52.6025L56.4704 17.4801H56.6294L60.4874 5.72727H63.6792ZM73.936 21.3082C72.4313 21.3082 71.1354 20.9867 70.0483 20.3438C68.9678 19.6941 68.1325 18.7827 67.5426 17.6094C66.9592 16.4295 66.6676 15.0473 66.6676 13.4631C66.6676 11.8987 66.9592 10.5199 67.5426 9.3267C68.1325 8.13352 68.9545 7.20218 70.0085 6.53267C71.0691 5.86316 72.3087 5.52841 73.7272 5.52841C74.589 5.52841 75.4242 5.67093 76.2329 5.95597C77.0416 6.241 77.7675 6.68845 78.4105 7.2983C79.0535 7.90814 79.5606 8.70028 79.9318 9.67472C80.303 10.6425 80.4886 11.8191 80.4886 13.2045V14.2585H68.348V12.0312H77.5753C77.5753 11.2491 77.4162 10.5563 77.098 9.95312C76.7798 9.34328 76.3324 8.86269 75.7556 8.51136C75.1856 8.16004 74.5161 7.98438 73.7471 7.98438C72.9119 7.98438 72.1827 8.18987 71.5596 8.60085C70.9431 9.00521 70.4659 9.53551 70.1278 10.1918C69.7964 10.8414 69.6306 11.5473 69.6306 12.3097V14.0497C69.6306 15.0705 69.8096 15.9389 70.1676 16.6548C70.5322 17.3707 71.0393 17.9176 71.6889 18.2955C72.3385 18.6667 73.0975 18.8523 73.9659 18.8523C74.5293 18.8523 75.0431 18.7727 75.5071 18.6136C75.9711 18.4479 76.3721 18.2027 76.7102 17.8778C77.0483 17.553 77.3068 17.152 77.4858 16.6747L80.2997 17.1818C80.0743 18.0104 79.6699 18.7363 79.0866 19.3594C78.5099 19.9759 77.7841 20.4564 76.9091 20.8011C76.0407 21.1392 75.0497 21.3082 73.936 21.3082ZM88.1603 0.636363V21H85.1873V0.636363H88.1603Z" fill="#FFFCFC"/>
<path d="M101.604 3.28125V0.636363H117.364V3.28125H111.011V21H107.948V3.28125H101.604ZM126.227 21.3082C124.795 21.3082 123.545 20.9801 122.478 20.3239C121.411 19.6676 120.582 18.7495 119.992 17.5696C119.402 16.3897 119.107 15.0109 119.107 13.4332C119.107 11.849 119.402 10.4635 119.992 9.27699C120.582 8.09043 121.411 7.16903 122.478 6.51278C123.545 5.85653 124.795 5.52841 126.227 5.52841C127.659 5.52841 128.908 5.85653 129.975 6.51278C131.043 7.16903 131.871 8.09043 132.461 9.27699C133.051 10.4635 133.346 11.849 133.346 13.4332C133.346 15.0109 133.051 16.3897 132.461 17.5696C131.871 18.7495 131.043 19.6676 129.975 20.3239C128.908 20.9801 127.659 21.3082 126.227 21.3082ZM126.237 18.8125C127.165 18.8125 127.934 18.5672 128.544 18.0767C129.153 17.5862 129.604 16.9332 129.896 16.1179C130.194 15.3026 130.343 14.4044 130.343 13.4233C130.343 12.4489 130.194 11.554 129.896 10.7386C129.604 9.91667 129.153 9.2571 128.544 8.75994C127.934 8.26278 127.165 8.0142 126.237 8.0142C125.302 8.0142 124.526 8.26278 123.91 8.75994C123.3 9.2571 122.846 9.91667 122.548 10.7386C122.256 11.554 122.11 12.4489 122.11 13.4233C122.11 14.4044 122.256 15.3026 122.548 16.1179C122.846 16.9332 123.3 17.5862 123.91 18.0767C124.526 18.5672 125.302 18.8125 126.237 18.8125ZM140.911 21L136.417 5.72727H139.489L142.482 16.9432H142.631L145.634 5.72727H148.706L151.689 16.8935H151.838L154.811 5.72727H157.884L153.399 21H150.367L147.265 9.97301H147.036L143.934 21H140.911ZM165.078 11.9318V21H162.105V5.72727H164.959V8.21307H165.148C165.499 7.40436 166.049 6.75473 166.798 6.2642C167.554 5.77367 168.505 5.52841 169.652 5.52841C170.693 5.52841 171.604 5.74716 172.386 6.18466C173.169 6.61553 173.775 7.25852 174.206 8.11364C174.637 8.96875 174.852 10.026 174.852 11.2855V21H171.879V11.6435C171.879 10.5365 171.591 9.6714 171.014 9.0483C170.438 8.41856 169.645 8.10369 168.638 8.10369C167.948 8.10369 167.335 8.25284 166.798 8.55114C166.268 8.84943 165.847 9.28693 165.536 9.86364C165.231 10.4337 165.078 11.1231 165.078 11.9318ZM29.6419 55V34.6364H32.7143V43.4858H42.8663V34.6364H45.9487V55H42.8663V46.1207H32.7143V55H29.6419ZM58.0178 55.3082C56.5859 55.3082 55.3364 54.9801 54.2692 54.3239C53.2019 53.6676 52.3733 52.7495 51.7834 51.5696C51.1934 50.3897 50.8984 49.0109 50.8984 47.4332C50.8984 45.849 51.1934 44.4635 51.7834 43.277C52.3733 42.0904 53.2019 41.169 54.2692 40.5128C55.3364 39.8565 56.5859 39.5284 58.0178 39.5284C59.4496 39.5284 60.6991 39.8565 61.7663 40.5128C62.8336 41.169 63.6622 42.0904 64.2521 43.277C64.8421 44.4635 65.1371 45.849 65.1371 47.4332C65.1371 49.0109 64.8421 50.3897 64.2521 51.5696C63.6622 52.7495 62.8336 53.6676 61.7663 54.3239C60.6991 54.9801 59.4496 55.3082 58.0178 55.3082ZM58.0277 52.8125C58.9557 52.8125 59.7247 52.5672 60.3345 52.0767C60.9444 51.5862 61.3951 50.9332 61.6868 50.1179C61.9851 49.3026 62.1342 48.4044 62.1342 47.4233C62.1342 46.4489 61.9851 45.554 61.6868 44.7386C61.3951 43.9167 60.9444 43.2571 60.3345 42.7599C59.7247 42.2628 58.9557 42.0142 58.0277 42.0142C57.093 42.0142 56.3175 42.2628 55.701 42.7599C55.0911 43.2571 54.6371 43.9167 54.3388 44.7386C54.0471 45.554 53.9013 46.4489 53.9013 47.4233C53.9013 48.4044 54.0471 49.3026 54.3388 50.1179C54.6371 50.9332 55.0911 51.5862 55.701 52.0767C56.3175 52.5672 57.093 52.8125 58.0277 52.8125ZM72.8286 34.6364V55H69.8556V34.6364H72.8286ZM78.2283 55V39.7273H81.2013V55H78.2283ZM79.7297 37.3707C79.2126 37.3707 78.7685 37.1984 78.3973 36.8537C78.0327 36.5024 77.8504 36.0848 77.8504 35.6009C77.8504 35.1103 78.0327 34.6927 78.3973 34.348C78.7685 33.9967 79.2126 33.821 79.7297 33.821C80.2467 33.821 80.6876 33.9967 81.0521 34.348C81.4233 34.6927 81.609 35.1103 81.609 35.6009C81.609 36.0848 81.4233 36.5024 81.0521 36.8537C80.6876 37.1984 80.2467 37.3707 79.7297 37.3707ZM92.3182 55.2983C91.0853 55.2983 89.9849 54.9834 89.0171 54.3537C88.0559 53.7173 87.3003 52.8125 86.7501 51.6392C86.2065 50.4593 85.9347 49.044 85.9347 47.3935C85.9347 45.7429 86.2098 44.331 86.76 43.1577C87.3168 41.9844 88.0791 41.0862 89.0469 40.4631C90.0147 39.84 91.1118 39.5284 92.3381 39.5284C93.2861 39.5284 94.0484 39.6875 94.6251 40.0057C95.2084 40.3172 95.6592 40.6818 95.9773 41.0994C96.3022 41.517 96.554 41.8849 96.733 42.2031H96.912V34.6364H99.885V55H96.9816V52.6236H96.733C96.554 52.9484 96.2955 53.3196 95.9575 53.7372C95.626 54.1548 95.1686 54.5194 94.5853 54.831C94.002 55.1425 93.2463 55.2983 92.3182 55.2983ZM92.9745 52.7628C93.8296 52.7628 94.5522 52.5374 95.1421 52.0866C95.7387 51.6293 96.1895 50.9962 96.4944 50.1875C96.8059 49.3788 96.9617 48.4375 96.9617 47.3636C96.9617 46.303 96.8093 45.375 96.5043 44.5795C96.1994 43.7841 95.752 43.1643 95.162 42.7202C94.572 42.276 93.8429 42.054 92.9745 42.054C92.0796 42.054 91.3339 42.286 90.7373 42.75C90.1407 43.214 89.6899 43.8471 89.385 44.6491C89.0867 45.4512 88.9376 46.3561 88.9376 47.3636C88.9376 48.3845 89.09 49.3026 89.395 50.1179C89.6999 50.9332 90.1506 51.5795 90.7472 52.0568C91.3504 52.5275 92.0929 52.7628 92.9745 52.7628ZM109.973 55.3381C109.005 55.3381 108.13 55.1591 107.348 54.8011C106.566 54.4366 105.946 53.9096 105.488 53.2202C105.038 52.5308 104.812 51.6856 104.812 50.6847C104.812 49.8229 104.978 49.1136 105.31 48.5568C105.641 48 106.088 47.5592 106.652 47.2344C107.215 46.9096 107.845 46.6643 108.541 46.4986C109.237 46.3329 109.946 46.2069 110.669 46.1207C111.584 46.0147 112.326 45.9285 112.896 45.8622C113.466 45.7893 113.881 45.6733 114.139 45.5142C114.398 45.3551 114.527 45.0966 114.527 44.7386V44.669C114.527 43.8007 114.282 43.1278 113.791 42.6506C113.307 42.1733 112.585 41.9347 111.623 41.9347C110.622 41.9347 109.834 42.1567 109.257 42.6009C108.687 43.0384 108.292 43.5256 108.074 44.0625L105.28 43.4261C105.611 42.4981 106.095 41.7491 106.731 41.179C107.374 40.6023 108.113 40.1847 108.949 39.9261C109.784 39.661 110.662 39.5284 111.584 39.5284C112.194 39.5284 112.84 39.6013 113.523 39.7472C114.212 39.8864 114.855 40.1449 115.452 40.5227C116.055 40.9006 116.549 41.4408 116.933 42.1435C117.318 42.8395 117.51 43.7443 117.51 44.858V55H114.606V52.9119H114.487C114.295 53.2964 114.006 53.6742 113.622 54.0455C113.238 54.4167 112.744 54.7249 112.14 54.9702C111.537 55.2154 110.815 55.3381 109.973 55.3381ZM110.619 52.9517C111.441 52.9517 112.144 52.7893 112.727 52.4645C113.317 52.1397 113.765 51.7154 114.069 51.1918C114.381 50.6615 114.537 50.0947 114.537 49.4915V47.5227C114.431 47.6288 114.225 47.7282 113.92 47.821C113.622 47.9072 113.281 47.9834 112.896 48.0497C112.512 48.1094 112.137 48.1657 111.773 48.2188C111.408 48.2652 111.103 48.3049 110.858 48.3381C110.281 48.411 109.754 48.5336 109.277 48.706C108.806 48.8783 108.428 49.1269 108.143 49.4517C107.865 49.7699 107.726 50.1941 107.726 50.7244C107.726 51.4602 107.997 52.017 108.541 52.3949C109.085 52.7661 109.777 52.9517 110.619 52.9517ZM124.202 60.7273C123.758 60.7273 123.354 60.6908 122.989 60.6179C122.624 60.5516 122.353 60.4787 122.174 60.3991L122.89 57.9631C123.433 58.1089 123.917 58.1719 124.341 58.152C124.766 58.1321 125.14 57.973 125.465 57.6747C125.796 57.3764 126.088 56.8892 126.34 56.2131L126.708 55.1989L121.12 39.7273H124.301L128.169 51.5795H128.328L132.196 39.7273H135.388L129.094 57.0384C128.802 57.8338 128.431 58.5066 127.98 59.0568C127.53 59.6136 126.993 60.0313 126.37 60.3097C125.747 60.5881 125.024 60.7273 124.202 60.7273ZM151.027 43.456L148.332 43.9332C148.219 43.5885 148.041 43.2604 147.795 42.9489C147.557 42.6373 147.232 42.3821 146.821 42.1832C146.41 41.9844 145.896 41.8849 145.28 41.8849C144.438 41.8849 143.735 42.0739 143.172 42.4517C142.608 42.8229 142.326 43.3035 142.326 43.8935C142.326 44.4039 142.515 44.8149 142.893 45.1264C143.271 45.438 143.881 45.6932 144.723 45.892L147.149 46.4489C148.554 46.7737 149.602 47.2741 150.291 47.9503C150.98 48.6264 151.325 49.5047 151.325 50.5852C151.325 51.5 151.06 52.3153 150.53 53.0312C150.006 53.7405 149.273 54.2973 148.332 54.7017C147.398 55.1061 146.314 55.3082 145.081 55.3082C143.371 55.3082 141.975 54.9437 140.895 54.2145C139.814 53.4787 139.151 52.4347 138.906 51.0824L141.78 50.6449C141.959 51.3939 142.326 51.9607 142.883 52.3452C143.44 52.723 144.166 52.9119 145.061 52.9119C146.035 52.9119 146.814 52.7098 147.398 52.3054C147.981 51.8944 148.273 51.3939 148.273 50.804C148.273 50.3267 148.094 49.9257 147.736 49.6009C147.384 49.276 146.844 49.0308 146.115 48.8651L143.53 48.2983C142.104 47.9735 141.05 47.4564 140.368 46.7472C139.692 46.0379 139.353 45.1397 139.353 44.0526C139.353 43.151 139.605 42.3622 140.109 41.6861C140.613 41.0099 141.309 40.483 142.197 40.1051C143.085 39.7206 144.103 39.5284 145.25 39.5284C146.9 39.5284 148.2 39.8864 149.148 40.6023C150.095 41.3116 150.722 42.2628 151.027 43.456Z" fill="#562EF4"/>
</g>
<defs>
<filter id="filter0_bd_0_1" x="-1.00806" y="-3.36364" width="181.86" height="72.0909" filterUnits="userSpaceOnUse" color-interpolation-filters="sRGB">
<feFlood flood-opacity="0" result="BackgroundImageFix"/>
<feGaussianBlur in="BackgroundImageFix" stdDeviation="2"/>
<feComposite in2="SourceAlpha" operator="in" result="effect1_backgroundBlur_0_1"/>
<feColorMatrix in="SourceAlpha" type="matrix" values="0 0 0 0 0 0 0 0 0 0 0 0 0 0 0 0 0 0 127 0" result="hardAlpha"/>
<feOffset dx="2" dy="4"/>
<feGaussianBlur stdDeviation="2"/>
<feComposite in2="hardAlpha" operator="out"/>
<feColorMatrix type="matrix" values="0 0 0 0 0 0 0 0 0 0 0 0 0 0 0 0 0 0 0.25 0"/>
<feBlend mode="normal" in2="effect1_backgroundBlur_0_1" result="effect2_dropShadow_0_1"/>
<feBlend mode="normal" in="SourceGraphic" in2="effect2_dropShadow_0_1" result="shape"/>
</filter>
</defs>
</svg>
